<svg width="700" height="400" viewBox="0 0 700 400" fill="none" xmlns="http://www.w3.org/2000/svg">
<rect width="700" height="400" fill="#1B1B1B"/>
<path d="M232.881 144.592L248.829 146.804C249.139 146.415 249.358 145.962 249.468 145.477C249.578 144.993 249.578 144.489 249.466 144.005L236.024 121.957L232.881 144.592Z" fill="#FFD075"/>
<path d="M211.988 197.108C211.964 195.699 211.864 194.292 211.688 192.893C210.376 183.174 208.737 178.91 211.031 169.233C213.176 162.735 214.96 149.345 232.391 153.885C236.995 155.085 243.816 159.446 247.997 159.953C250.389 160.242 252.797 155.655 253.176 154.069C253.698 151.885 250.364 147.587 248.83 146.8C245.254 145.068 241.652 143.391 238.026 141.767C233.829 139.893 234.876 134.015 234.89 131.872C234.896 131.374 235.05 130.888 235.332 130.476C235.613 130.064 236.01 129.744 236.472 129.556C237.428 129.157 238.055 129.742 238.836 130.42L242.183 133.664C244.026 135.747 237.78 138.373 239.263 139.162C239.263 139.162 246.265 142.96 249.35 143.976C251.04 144.532 257.962 138.611 258.86 134.698C259.566 131.622 246.941 115.53 237.306 108.626C233.919 106.2 231.931 104.787 229.508 104.567C226.615 104.303 225.552 105.314 221.55 107.882C203.437 119.489 183.567 147.265 180.341 153.575C167.117 179.458 163.653 193.581 162.194 201.628C161.644 204.06 161.195 206.514 160.848 208.983C161.121 209.021 153.721 229.445 157.346 234.238C160.971 239.03 179.18 241.555 179.18 241.555C218.942 264.181 297.711 270.637 303.653 227.785C310.757 176.553 230.63 172.371 211.988 197.108Z" fill="#774343"/>
<path d="M239.207 242.929C226.1 239.687 216.616 231.727 216.083 231.271C215.225 230.541 214.692 229.499 214.601 228.375C214.511 227.252 214.871 226.138 215.601 225.28C216.332 224.421 217.373 223.888 218.497 223.798C219.621 223.708 220.734 224.067 221.592 224.798C221.746 224.926 236.987 237.623 253.76 235.552C263.035 234.409 271.271 228.906 278.236 219.207C278.893 218.291 279.887 217.674 280.999 217.491C282.112 217.308 283.251 217.575 284.167 218.232C285.083 218.889 285.7 219.883 285.883 220.996C286.066 222.108 285.799 223.247 285.142 224.163C276.716 235.89 266.486 242.567 254.734 243.996C249.25 244.66 243.985 244.11 239.207 242.929Z" fill="#FFD075"/>
<circle cx="354.092" cy="199.677" r="101.323" fill="#774343"/>
<path d="M372.892 239.152L371.484 243.504L349.596 245.424L338.716 240.048V245.04L318.492 246.832L305.692 240.432V143.152L330.78 140.848L343.58 147.248L353.82 185.392L365.596 140.336L390.556 138.288L403.356 144.688V242.096L382.108 243.76L372.892 239.152ZM366.62 141.616L350.364 204.336C350.108 205.36 349.852 206.555 349.596 207.92C349.34 209.2 349.127 210.352 348.956 211.376C348.785 212.4 348.7 212.912 348.7 212.912L348.188 213.04C348.188 213.04 348.103 212.528 347.932 211.504C347.847 210.48 347.676 209.285 347.42 207.92C347.249 206.555 347.036 205.403 346.78 204.464L329.756 142.256L306.972 144.304V239.024L324.636 237.616V196.656C324.636 194.864 324.593 192.987 324.508 191.024C324.423 188.976 324.337 187.269 324.252 185.904C324.167 184.539 324.124 183.856 324.124 183.856L324.38 183.728C324.551 184.923 324.764 186.416 325.02 188.208C325.361 189.915 325.703 191.579 326.044 193.2C326.471 194.736 326.769 195.931 326.94 196.784L337.692 237.744L357.532 235.952L368.028 196.656C368.54 194.693 369.009 192.645 369.436 190.512C369.863 188.293 370.204 186.416 370.46 184.88C370.716 183.344 370.844 182.576 370.844 182.576L371.1 182.704C371.1 182.704 371.057 183.472 370.972 185.008C370.887 186.544 370.801 188.336 370.716 190.384C370.631 192.432 370.588 194.267 370.588 195.888V236.08L389.276 234.544V139.696L366.62 141.616Z" fill="#FFD075"/>
<path d="M423.71 239.268C423.71 239.268 419.489 247.368 411.575 246.79C403.652 246.212 395.21 227.693 379.369 221.904C363.531 216.115 355.082 225.374 355.082 225.374C355.082 225.374 346.636 216.115 330.803 221.904C314.966 227.693 306.52 246.212 298.601 246.79C290.683 247.368 286.458 239.268 286.458 239.268C286.458 239.268 283.818 246.212 291.214 256.05C298.601 265.887 319.186 270.023 332.388 265.887C347.163 261.257 355.082 249.687 355.082 249.687C355.082 249.687 362.473 261.839 377.783 265.887C391.129 269.42 411.575 265.887 418.962 256.05C426.349 246.213 423.71 239.268 423.71 239.268Z" fill="#FFD075"/>
<path d="M462.334 104.228L450.376 112.518C449.97 112.341 449.611 112.075 449.327 111.741C449.043 111.407 448.841 111.012 448.735 110.587L450.678 87.7863L462.334 104.228Z" fill="#FFD075"/>
<path d="M500.335 136.783C499.786 135.669 499.299 134.525 498.877 133.357C496.017 125.203 495.619 121.188 489.87 114.549C485.523 110.34 478.689 100.583 466.475 111.307C463.249 114.14 459.511 120.361 456.347 122.477C454.536 123.687 450.747 121.084 449.803 119.997C448.502 118.5 449.456 113.762 450.374 112.515C452.558 109.688 454.783 106.893 457.05 104.13C459.677 100.936 456.464 96.7612 455.589 95.088C455.383 94.6999 455.063 94.3826 454.67 94.1755C454.277 93.9685 453.829 93.881 453.381 93.9241C452.45 94.0044 452.18 94.72 451.825 95.573L450.436 99.4906C449.79 101.88 455.881 101.37 455.004 102.598C455.004 102.598 450.894 108.452 448.817 110.516C447.679 111.647 439.716 109.853 437.416 107.158C435.607 105.037 439.293 87.239 444.272 77.8685C446.024 74.5752 447.056 72.6513 448.919 71.4825C451.144 70.0861 452.408 70.4413 456.668 70.8077C475.939 72.4542 503.143 86.0467 508.285 89.6637C529.373 104.506 537.856 114.146 542.275 119.851C543.698 121.531 545.049 123.268 546.324 125.06C546.119 125.203 560.313 138.161 559.324 143.407C558.335 148.652 544.682 158.116 544.682 158.116C521.766 192.191 460.906 229.635 438.847 198.505C412.474 161.286 475.345 125.066 500.335 136.783Z" fill="#774343"/>
<path d="M496.873 183.873C506.126 175.945 510.559 165.809 510.805 165.233C511.202 164.307 511.211 163.272 510.831 162.354C510.451 161.437 509.713 160.713 508.778 160.34C507.844 159.968 506.79 159.979 505.848 160.37C504.906 160.761 504.154 161.501 503.757 162.426C503.685 162.59 496.523 178.803 482.174 184.077C474.242 186.995 465.388 186.07 455.867 181.335C454.969 180.887 453.919 180.812 452.949 181.126C451.979 181.44 451.169 182.118 450.696 183.009C450.223 183.9 450.126 184.933 450.427 185.88C450.728 186.826 451.402 187.609 452.301 188.057C463.816 193.781 474.75 194.805 484.793 191.094C489.48 189.359 493.5 186.763 496.873 183.873Z" fill="#FFD075"/>
</svg>
