<svg width="532" height="304" viewBox="0 0 532 304" fill="none" xmlns="http://www.w3.org/2000/svg">
<rect width="532" height="304" fill="#5D814C"/>
<path d="M297.75 46H235.25C217.991 46 204 59.9911 204 77.25V134.759C204 152.018 217.991 166.009 235.25 166.009H297.75C315.009 166.009 329 152.018 329 134.759V77.25C329 59.9911 315.009 46 297.75 46Z" fill="#273635"/>
<path d="M256.928 109.668C262.562 105.302 270.437 105.302 276.072 109.668L313.064 138.337C321.136 144.592 321.136 156.782 313.064 163.038L276.072 191.707C270.437 196.073 262.562 196.073 256.928 191.707L219.936 163.038C211.864 156.782 211.864 144.592 219.936 138.337L256.928 109.668Z" fill="#273635"/>
<path d="M266.5 171C282.033 171 294.625 161.206 294.625 149.125C294.625 137.044 282.033 127.25 266.5 127.25C250.967 127.25 238.375 137.044 238.375 149.125C238.375 161.206 250.967 171 266.5 171Z" fill="white"/>
<path d="M266.5 171C282.033 171 294.625 161.206 294.625 149.125C294.625 137.044 282.033 127.25 266.5 127.25C250.967 127.25 238.375 137.044 238.375 149.125C238.375 161.206 250.967 171 266.5 171Z" fill="white"/>
<path d="M266.5 171C282.033 171 294.625 161.206 294.625 149.125C294.625 137.044 282.033 127.25 266.5 127.25C250.967 127.25 238.375 137.044 238.375 149.125C238.375 161.206 250.967 171 266.5 171Z" fill="white"/>
<path d="M266.5 164.75C276.855 164.75 285.25 158.454 285.25 150.688C285.25 142.921 276.855 136.625 266.5 136.625C256.145 136.625 247.75 142.921 247.75 150.688C247.75 158.454 256.145 164.75 266.5 164.75Z" fill="white"/>
<path d="M266.5 164.75C276.855 164.75 285.25 158.454 285.25 150.688C285.25 142.921 276.855 136.625 266.5 136.625C256.145 136.625 247.75 142.921 247.75 150.688C247.75 158.454 256.145 164.75 266.5 164.75Z" fill="white"/>
<path d="M266.5 164.75C276.855 164.75 285.25 158.454 285.25 150.688C285.25 142.921 276.855 136.625 266.5 136.625C256.145 136.625 247.75 142.921 247.75 150.688C247.75 158.454 256.145 164.75 266.5 164.75Z" fill="#273635"/>
<path d="M266.5 127.25C278.581 127.25 288.375 117.456 288.375 105.375C288.375 93.2938 278.581 83.5 266.5 83.5C254.419 83.5 244.625 93.2938 244.625 105.375C244.625 117.456 254.419 127.25 266.5 127.25Z" fill="white"/>
<path d="M275.875 189.75H257.125V242.875H275.875V189.75Z" fill="#273635"/>
<path d="M261.362 234.665C263.848 231.078 269.152 231.078 271.637 234.665L275.942 240.878C278.814 245.023 275.847 250.687 270.804 250.687H262.196C257.153 250.687 254.186 245.023 257.058 240.878L261.362 234.665Z" fill="#273635"/>
<path d="M304 127.25H229V155.375H304V127.25Z" fill="#273635"/>
</svg>
